<svg width="15" height="17" viewBox="0 0 15 17" fill="none" xmlns="http://www.w3.org/2000/svg">
<path d="M15 4.5C15 6.98528 12.9853 9 10.5 9C8.01472 9 6 6.98528 6 4.5C6 2.01472 8.01472 0 10.5 0C12.9853 0 15 2.01472 15 4.5ZM11 2.5C11 2.22386 10.7761 2 10.5 2C10.2239 2 10 2.22386 10 2.5V4H8.5C8.22386 4 8 4.22386 8 4.5C8 4.77614 8.22386 5 8.5 5H10V6.5C10 6.77614 10.2239 7 10.5 7C10.7761 7 11 6.77614 11 6.5V5H12.5C12.7761 5 13 4.77614 13 4.5C13 4.22386 12.7761 4 12.5 4H11V2.5ZM3 3H5.20703C5.11588 3.32228 5.05337 3.65659 5.02242 4H3C1.89543 4 1 4.89543 1 6H5.20703C5.30564 6.34864 5.43777 6.68321 5.59971 7H1V10H4.5C4.77614 10 5 10.2239 5 10.5C5 11.6046 5.89543 12.5 7 12.5C8.10457 12.5 9 11.6046 9 10.5C9 10.2239 9.22386 10 9.5 10H13L13 9.40029C13.3578 9.21739 13.6929 8.99647 14 8.74284V14C14 15.6569 12.6569 17 11 17H3C1.34315 17 0 15.6569 0 14V6C0 4.34315 1.34315 3 3 3Z" fill="#384250"/>
</svg>
