<svg width="16" height="14" viewBox="0 0 16 14" fill="none" xmlns="http://www.w3.org/2000/svg">
<path d="M8.565 1.5H13.5C14.7703 1.5 15.8192 2.44737 15.9789 3.67409L15.9947 3.83562L16 4V11.5C16 12.8255 14.9685 13.91 13.6644 13.9947L13.5 14H2.5C1.17452 14 0.0899613 12.9685 0.00531769 11.6644L0 11.5V4.5H5.07069L5.22385 4.49217C5.52777 4.46098 5.81509 4.33763 6.04702 4.13877L6.15819 4.03312L8.565 1.5ZM5.16667 0C5.43713 0 5.70151 0.073102 5.93238 0.210162L6.06667 0.3L7.385 1.289L5.43319 3.34437L5.3724 3.39872C5.3077 3.44767 5.23201 3.48017 5.15196 3.49335L5.07069 3.5H0V2.5C0 1.17452 1.03154 0.0899613 2.33562 0.00531769L2.5 0H5.16667Z" fill="#384250"/>
</svg>
