<svg width="18" height="18" viewBox="0 0 18 18" fill="none" xmlns="http://www.w3.org/2000/svg">
<path d="M0.910503 6.38266C1.27979 5.24053 1.88814 4.19213 2.69084 3.30364C2.82658 3.15339 3.03954 3.09984 3.2302 3.16802L5.14848 3.85392C5.66856 4.03977 6.24082 3.76883 6.42668 3.24875C6.44495 3.19762 6.45903 3.14507 6.46876 3.09173L6.83422 1.08573C6.87055 0.886273 7.02373 0.728505 7.22203 0.686297C7.80222 0.562802 8.39709 0.5 8.99977 0.5C9.60207 0.5 10.1966 0.562725 10.7765 0.686072C10.9747 0.728241 11.1279 0.88591 11.1643 1.08529L11.5308 3.09165C11.6298 3.63497 12.1506 3.9951 12.6939 3.89601C12.7474 3.88627 12.7999 3.87219 12.851 3.85395L14.7693 3.16802C14.96 3.09984 15.173 3.15339 15.3087 3.30364C16.1114 4.19213 16.7197 5.24053 17.089 6.38266C17.1513 6.57534 17.0913 6.78658 16.9369 6.91764L15.3821 8.23773C14.9611 8.5952 14.9096 9.22627 15.267 9.64726C15.3022 9.68865 15.3407 9.72712 15.382 9.76225L16.9369 11.0824C17.0913 11.2134 17.1513 11.4247 17.089 11.6173C16.7197 12.7595 16.1114 13.8079 15.3087 14.6964C15.173 14.8466 14.96 14.9002 14.7693 14.832L12.8511 14.1461C12.331 13.9602 11.7587 14.2312 11.5729 14.7512C11.5546 14.8024 11.5405 14.8549 11.5307 14.9085L11.1643 16.9147C11.1279 17.1141 10.9747 17.2718 10.7765 17.3139C10.1966 17.4373 9.60207 17.5 8.99977 17.5C8.39709 17.5 7.80222 17.4372 7.22203 17.3137C7.02373 17.2715 6.87055 17.1137 6.83422 16.9143L6.46877 14.9084C6.36969 14.365 5.84891 14.0049 5.30559 14.104C5.25216 14.1137 5.19962 14.1278 5.14857 14.1461L3.2302 14.832C3.03954 14.9002 2.82658 14.8466 2.69084 14.6964C1.88814 13.8079 1.27979 12.7595 0.910503 11.6173C0.848202 11.4247 0.908275 11.2134 1.06265 11.0824L2.61749 9.76227C3.03848 9.4048 3.08997 8.77373 2.7325 8.35274C2.69735 8.31135 2.65888 8.27288 2.61751 8.23775L1.06265 6.91764C0.908275 6.78658 0.848202 6.57534 0.910503 6.38266ZM6.99977 9C6.99977 10.1046 7.8952 11 8.99977 11C10.1043 11 10.9998 10.1046 10.9998 9C10.9998 7.89543 10.1043 7 8.99977 7C7.8952 7 6.99977 7.89543 6.99977 9Z" fill="#384250"/>
</svg>
