<svg width="14" height="15" viewBox="0 0 14 15" fill="none" xmlns="http://www.w3.org/2000/svg">
<path d="M8.0025 0.388112C7.43233 -0.124162 6.56767 -0.124163 5.9975 0.388111L0.497502 5.32965C0.180859 5.61414 0 6.01977 0 6.44544V13.4996C0 14.328 0.671573 14.9996 1.5 14.9996H3.5C4.32843 14.9996 5 14.328 5 13.4996V9.49957C5 9.22343 5.22386 8.99957 5.5 8.99957H8.5C8.77614 8.99957 9 9.22343 9 9.49957V13.4996C9 14.328 9.67157 14.9996 10.5 14.9996H12.5C13.3284 14.9996 14 14.328 14 13.4996V6.44544C14 6.01977 13.8191 5.61414 13.5025 5.32965L8.0025 0.388112Z" fill="#384250"/>
</svg>
