<svg width="32" height="32" viewBox="0 0 28 28" fill="none" xmlns="http://www.w3.org/2000/svg">
<rect width="28" height="28" rx="14" fill="#4b00fc"/>
<g clip-path="url(#clip0_2524_53288)">
<path d="M14 6.75C9.99594 6.75 6.75 9.99594 6.75 14C6.75 18.0041 9.99594 21.25 14 21.25C18.0041 21.25 21.25 18.0041 21.25 14C21.25 13.7144 21.2335 13.4326 21.2014 13.1556C21.1333 12.5685 21.5593 12 22.1504 12C22.666 12 23.1193 12.3581 23.1817 12.8699C23.2268 13.2403 23.25 13.6174 23.25 14C23.25 19.1086 19.1086 23.25 14 23.25C8.89137 23.25 4.75 19.1086 4.75 14C4.75 8.89137 8.89137 4.75 14 4.75C16.1731 4.75 18.1712 5.49939 19.75 6.75385V6.25C19.75 5.69772 20.1977 5.25 20.75 5.25C21.3023 5.25 21.75 5.69772 21.75 6.25V8.94829C21.7612 8.96549 21.7724 8.98272 21.7835 9H21.75V9.25C21.75 9.80228 21.3023 10.25 20.75 10.25H17.75C17.1977 10.25 16.75 9.80228 16.75 9.25C16.75 8.69772 17.1977 8.25 17.75 8.25H18.4165C17.1936 7.30932 15.6621 6.75 14 6.75Z" fill="white"/>
</g>
<defs>
<clipPath id="clip0_2524_53288">
<rect width="20" height="20" fill="white" transform="translate(4 4)"/>
</clipPath>
</defs>
</svg>
