<svg width="16" height="15" viewBox="0 0 16 15" fill="none" xmlns="http://www.w3.org/2000/svg">
<path d="M9 8C10.1046 8 11 8.89543 11 10V11.5C11 13.5544 8.91195 15 5.5 15C2.08805 15 0 13.5544 0 11.5V10C0 8.89543 0.89543 8 2 8H9ZM14 8C15.1046 8 16 8.89543 16 10V10.5C16 12.5886 14.4317 14 11.5 14C11.3587 14 11.2206 13.9967 11.0856 13.9902C11.625 13.3625 11.9439 12.6041 11.9932 11.7387L12 11.5V10C12 9.3081 11.7658 8.67091 11.3723 8.16339L11.2353 7.99912L14 8ZM5.5 0C7.433 0 9 1.567 9 3.5C9 5.433 7.433 7 5.5 7C3.567 7 2 5.433 2 3.5C2 1.567 3.567 0 5.5 0ZM12.5 2C13.8807 2 15 3.11929 15 4.5C15 5.88071 13.8807 7 12.5 7C11.1193 7 10 5.88071 10 4.5C10 3.11929 11.1193 2 12.5 2Z" fill="#384250"/>
</svg>
