<svg width="28" height="28" viewBox="0 0 28 28" fill="none" xmlns="http://www.w3.org/2000/svg">
<rect width="28" height="28" rx="14" fill="#FF3B30"/>
<path d="M14.0002 5.81836C18.519 5.81836 22.182 9.48218 22.182 14.0002C22.182 18.5182 18.519 22.182 14.0002 22.182C9.48136 22.182 5.81836 18.5182 5.81836 14.0002C5.81836 9.48218 9.48136 5.81836 14.0002 5.81836ZM14.0017 16.4578C13.5504 16.4578 13.1846 16.8236 13.1846 17.2749C13.1846 17.7261 13.5504 18.0919 14.0017 18.0919C14.4529 18.0919 14.8187 17.7261 14.8187 17.2749C14.8187 16.8236 14.4529 16.4578 14.0017 16.4578ZM13.9999 9.90927C13.5803 9.90942 13.2346 10.2254 13.1875 10.6323L13.182 10.7277L13.1835 14.8194L13.189 14.9148C13.2364 15.3217 13.5824 15.6374 14.0019 15.6373C14.4215 15.6371 14.7672 15.3211 14.8144 14.9142L14.8198 14.8188L14.8184 10.7272L14.8128 10.6317C14.7654 10.2248 14.4195 9.90912 13.9999 9.90927Z" fill="white"/>
</svg>
