<svg width="24" height="24" viewBox="0 0 24 24" fill="none" xmlns="http://www.w3.org/2000/svg">
<path d="M13.387 3.42476L19.7522 7.66821C20.2117 7.97456 20.3359 8.59543 20.0295 9.05496C19.9563 9.16481 19.862 9.25907 19.7522 9.33231L13.387 13.5758C12.5472 14.1356 11.4532 14.1356 10.6135 13.5758L4.24832 9.33231C3.78879 9.02595 3.66462 8.40509 3.97097 7.94556C4.0442 7.8357 4.13847 7.74144 4.24832 7.66821L10.6135 3.42476C11.4532 2.86492 12.5472 2.86492 13.387 3.42476ZM20.0259 12.1922C19.8775 12.4296 19.6809 12.6332 19.4488 12.7899L13.3989 16.8736C12.5537 17.4441 11.4468 17.4441 10.6016 16.8736L4.55167 12.7899C3.79068 12.2762 3.49558 11.3306 3.77253 10.5003L10.6135 15.0598C11.4008 15.5847 12.4115 15.6175 13.2267 15.1582L13.387 15.0598L20.2273 10.4998C20.409 11.0459 20.3548 11.666 20.0259 12.1922ZM20.0259 15.4422C19.8775 15.6796 19.6809 15.8832 19.4488 16.0399L13.3989 20.1236C12.5537 20.6941 11.4468 20.6941 10.6016 20.1236L4.55167 16.0399C3.79068 15.5262 3.49558 14.5806 3.77253 13.7503L10.6135 18.3098C11.4008 18.8347 12.4115 18.8675 13.2267 18.4082L13.387 18.3098L20.2273 13.7498C20.409 14.2959 20.3548 14.916 20.0259 15.4422Z" fill="white"/>
</svg>
