<svg width="28" height="28" viewBox="0 0 28 28" fill="none" xmlns="http://www.w3.org/2000/svg">
<rect width="28" height="28" rx="14" fill="#3AC569"/>
<path d="M14.0002 5.81836C18.5189 5.81836 22.182 9.48148 22.182 14.0002C22.182 18.5189 18.5189 22.182 14.0002 22.182C9.48148 22.182 5.81836 18.5189 5.81836 14.0002C5.81836 9.48148 9.48148 5.81836 14.0002 5.81836ZM16.6345 11.5208L12.9775 15.1778L11.3659 13.5663C11.1263 13.3266 10.7377 13.3266 10.4981 13.5663C10.2584 13.8059 10.2584 14.1944 10.4981 14.4341L12.5435 16.4795C12.7832 16.7192 13.1717 16.7192 13.4114 16.4795L17.5023 12.3886C17.7419 12.149 17.7419 11.7605 17.5023 11.5208C17.2626 11.2812 16.8741 11.2812 16.6345 11.5208Z" fill="white"/>
</svg>
