<svg width="44" height="44" viewBox="0 0 44 44" fill="none" xmlns="http://www.w3.org/2000/svg">
<rect width="44" height="44" rx="22" fill="#c3aaff"/>
<path d="M15.25 13.4951H28.7477C29.1619 13.4951 29.4977 13.1593 29.4977 12.7451C29.4977 12.3654 29.2155 12.0516 28.8494 12.002L28.7477 11.9951H15.25C14.8358 11.9951 14.5 12.3309 14.5 12.7451C14.5 13.1248 14.7822 13.4386 15.1482 13.4883L15.25 13.4951ZM21.8834 31.9928L22 31.9995C22.5128 31.9995 22.9355 31.6135 22.9933 31.1161L23 30.9995V18.4095L26.2941 21.7023C26.6546 22.0627 27.2218 22.0904 27.6141 21.7853L27.7083 21.7022C28.0687 21.3416 28.0964 20.7744 27.7913 20.3821L27.7081 20.2879L22.7105 15.2913C22.3502 14.9311 21.7833 14.9032 21.391 15.2078L21.2968 15.2909L16.2934 20.2875C15.9026 20.6778 15.9022 21.3109 16.2924 21.7017C16.6526 22.0625 17.2199 22.0906 17.6124 21.7858L17.7066 21.7027L21 18.4145V30.9995C21 31.5124 21.386 31.935 21.8834 31.9928Z" fill="#4b00fc"/>
</svg>
