<svg width="28" height="28" viewBox="0 0 28 28" fill="none" xmlns="http://www.w3.org/2000/svg">
<rect width="28" height="28" rx="14" fill="#FF951A"/>
<path d="M13.1068 6.45791C13.9575 5.98671 15.0195 6.26051 15.5414 7.06356L15.6091 7.17633L21.9574 18.6376C22.1086 18.9106 22.1879 19.2175 22.1879 19.5296C22.1879 20.5039 21.4309 21.3015 20.473 21.3663L20.347 21.3705H7.65228C7.3403 21.3705 7.03344 21.2912 6.7605 21.1401C5.90973 20.669 5.57833 19.6235 5.98215 18.7551L6.04179 18.6378L12.3883 7.17652C12.5556 6.87431 12.8046 6.62529 13.1068 6.45791ZM14.0002 17.274C13.5489 17.274 13.1831 17.6398 13.1831 18.0911C13.1831 18.5423 13.5489 18.9081 14.0002 18.9081C14.4515 18.9081 14.8173 18.5423 14.8173 18.0911C14.8173 17.6398 14.4515 17.274 14.0002 17.274ZM13.9984 10.7255C13.5788 10.7256 13.2331 11.0416 13.186 11.4485L13.1805 11.5439L13.182 15.6356L13.1876 15.731C13.235 16.1379 13.5809 16.4536 14.0005 16.4535C14.4201 16.4533 14.7658 16.1373 14.8129 15.7304L14.8184 15.635L14.8169 11.5434L14.8114 11.4479C14.764 11.041 14.418 10.7253 13.9984 10.7255Z" fill="white"/>
</svg>
